#!OML:ASF H:\Dans Jumps\Project 1\Capture day 1\Session 1\subject.ASF
:FULLY-SPECIFIED
:DEGREES
348
root -0.0759539 17.6596 8.82348 10.619 3.41208 -2.29053
lowerback 3.47157 0.664387 -1.98931
upperback 2.92193 0.831899 1.3297
thorax 1.00561 0.372568 2.45931
lowerneck -10.4246 -1.61738 -1.12435
upperneck 28.6121 -2.63081 2.11344
head 10.9792 -1.05275 0.637654
rclavicle 3.5657e-015 -4.24902e-015
rhumerus -12.7348 -3.60341 -85.755
rradius 36.047
rwrist 33.9924
rhand -21.0872 -26.4781
rfingers 7.12502
rthumb 5.29017 -56.3921
lclavicle 3.5657e-015 -4.24902e-015
lhumerus -29.1174 0.585863 86.8862
lradius 11.9918
lwrist -3.40296
lhand -26.8015 -9.34143
lfingers 7.12502
lthumb -0.228374 20.6382
rfemur -24.4438 -4.18688 22.1398
rtibia 26.1318
rfoot -10.8086 -0.40991
rtoes 15.8172
lfemur -24.7942 5.26633 -16.8551
ltibia 24.7774
lfoot -8.17647 2.0603
ltoes -1.33541
349
root -0.0711956 17.6738 8.86612 10.797 3.45355 -2.2407
lowerback 3.36811 0.681212 -1.92874
upperback 2.8821 0.857259 1.33447
thorax 1.02166 0.386361 2.43037
lowerneck -10.4783 -1.65209 -1.14076
upperneck 28.6534 -2.66889 2.08677
head 11.0063 -1.07368 0.625863
rclavicle -8.41729e-015 -1.12562e-014
rhumerus -13.0362 -3.81397 -85.8833
rradius 35.3571
rwrist 34.5744
rhand -20.9398 -26.4803
rfingers 7.12502
rthumb 5.43246 -56.3907
lclavicle -8.41729e-015 -1.12562e-014
lhumerus -29.4772 1.79754 86.2378
lradius 11.4362
lwrist -4.99318
lhand -26.5863 -9.17663
lfingers 7.12502
lthumb -0.020558 20.8031
rfemur -24.1534 -4.09266 22.0519
rtibia 25.5501
rfoot -10.7344 -0.512286
rtoes 15.819
lfemur -24.5827 5.48885 -16.9611
ltibia 24.2637
lfoot -8.10829 1.75765
ltoes -1.32241
350
root -0.0663415 17.6862 8.90726 10.9672 3.48115 -2.17511
lowerback 3.27152 0.701484 -1.87747
upperback 2.84133 0.886824 1.3314
thorax 1.03272 0.40224 2.39846
lowerneck -10.5368 -1.68711 -1.16312
upperneck 28.6846 -2.70717 2.06475
head 11.0307 -1.09484 0.616649
rclavicle -6.00237e-015 -1.22687e-014
rhumerus -13.3357 -4.07506 -86.0121
rradius 34.6628
rwrist 35.1748
rhand -20.788 -26.4905
rfingers 7.12502
rthumb 5.57901 -56.397
lclavicle -6.00237e-015 -1.22687e-014
lhumerus -29.8283 3.09213 85.5211
lradius 10.9323
lwrist -6.68374
lhand -26.3915 -9.034
lfingers 7.12502
lthumb 0.167627 20.9457
rfemur -23.9259 -3.99868 21.9456
rtibia 25.0842
rfoot -10.6757 -0.605855
rtoes 15.8132
lfemur -24.3956 5.70659 -17.0868
ltibia 23.8068
lfoot -8.05148 1.48298
ltoes -1.30131
351
root -0.0615324 17.6969 8.94668 11.1258 3.49309 -2.09111
lowerback 3.18662 0.726659 -1.84235
upperback 2.8032 0.922353 1.32189
thorax 1.03959 0.420921 2.36881
lowerneck -10.6045 -1.72462 -1.19296
upperneck 28.709 -2.74856 2.04778
head 11.0547 -1.1176 0.610034
rclavicle 9.18137e-015 -1.41634e-015
rhumerus -13.6399 -4.38175 -86.1347
rradius 33.974
rwrist 35.7848
rhand -20.6299 -26.5132
rfingers 7.12502
rthumb 5.73171 -56.4157
lclavicle 9.18137e-015 -1.41634e-015
lhumerus -30.1739 4.38616 84.7823
lradius 10.4927
lwrist -8.35083
lhand -26.2475 -8.94526
lfingers 7.12502
lthumb 0.306714 21.0343
rfemur -23.7546 -3.90104 21.8184
rtibia 24.7295
rfoot -10.6336 -0.696096
rtoes 15.8261
lfemur -24.2256 5.91054 -17.2325
ltibia 23.3993
lfoot -8.00005 1.24196
ltoes -1.26564
352
root -0.0565162 17.7063 8.98468 11.2638 3.49004 -1.99999
lowerback 3.11775 0.756186 -1.81485
upperback 2.77365 0.963243 1.31246
thorax 1.046 0.442074 2.34333
lowerneck -10.707 -1.75712 -1.20678
upperneck 28.7476 -2.77929 2.00561
head 11.0902 -1.13642 0.592517
rclavicle -1.39274e-014 -6.16232e-015
rhumerus -13.9402 -4.73422 -86.244
rradius 33.2838
rwrist 36.4088
rhand -20.4782 -26.5451
rfingers 7.12502
rthumb 5.87812 -56.4435
lclavicle -1.39274e-014 -6.16232e-015
lhumerus -30.5182 5.60004 84.0744
lradius 10.1351
lwrist -9.86711
lhand -26.132 -8.88276
lfingers 7.12502
lthumb 0.418261 21.0966
rfemur -23.6185 -3.80049 21.6811
rtibia 24.4694
rfoot -10.6119 -0.783825
rtoes 15.8387
lfemur -24.0589 6.09277 -17.384
ltibia 23.036
lfoot -7.95244 1.04019
ltoes -1.21728
353
root -0.0512431 17.7145 9.02142 11.3767 3.47307 -1.89806
lowerback 3.07164 0.790922 -1.79925
upperback 2.75235 1.01048 1.30279
thorax 1.04771 0.466192 2.32397
lowerneck -10.8046 -1.79187 -1.22694
upperneck 28.7662 -2.81137 1.96374
head 11.1172 -1.1567 0.575975
rclavicle 4.42296e-015 1.4561e-014
rhumerus -14.2404 -5.13984 -86.3334
rradius 32.5934
rwrist 37.0526
rhand -20.3283 -26.5766
rfingers 7.12502
rthumb 6.02289 -56.471
lclavicle 4.42296e-015 1.4561e-014
lhumerus -30.8091 5.84825 83.9258
lradius 9.86669
lwrist -10.2012
lhand -26.1529 -8.7436
lfingers 7.12502
lthumb 0.39804 21.2358
rfemur -23.4995 -3.69605 21.5287
rtibia 24.2838
rfoot -10.6148 -0.871755
rtoes 15.8455
lfemur -23.8864 6.24517 -17.543
ltibia 22.713
lfoot -7.90609 0.882649
ltoes -1.15835
354
root -0.0457792 17.7215 9.05704 11.4607 3.43768 -1.80084
lowerback 3.04496 0.832078 -1.78606
upperback 2.74039 1.0659 1.29963
thorax 1.04762 0.494233 2.31231
lowerneck -10.8906 -1.82555 -1.25277
upperneck 28.7702 -2.83887 1.91705
head 11.1362 -1.17631 0.559262
rclavicle 1.88845e-014 -2.48481e-015
rhumerus -14.5465 -5.59796 -86.3961
rradius 31.9063
rwrist 37.7192
rhand -20.1838 -26.5927
rfingers 7.12502
rthumb 6.16234 -56.4831
lclavicle 1.88845e-014 -2.48481e-015
lhumerus -31.1094 6.09645 83.7756
lradius 9.69836
lwrist -10.4361
lhand -26.1439 -8.6463
lfingers 7.12502
lthumb 0.40672 21.3331
rfemur -23.3812 -3.5737 21.3768
rtibia 24.1495
rfoot -10.6371 -0.965844
rtoes 15.845
lfemur -23.7015 6.36769 -17.6898
ltibia 22.4246
lfoot -7.85839 0.775694
ltoes -1.08684
